<svg xmlns="http://www.w3.org/2000/svg" viewBox="0 0 388.72 80.46"><defs><style>.cls-1{fill:#fc3;}.cls-1,.cls-2{fill-rule:evenodd;}.cls-2{fill:#2a1e20;}</style></defs><g id="Layer_2" data-name="Layer 2"><g id="Layer_1-2" data-name="Layer 1"><path class="cls-1" d="M79.59,38.12a3,3,0,0,1,0,4.21L42.34,79.58a3,3,0,0,1-4.22,0L.88,42.33a3,3,0,0,1,0-4.2L38.12.87a3,3,0,0,1,4.22,0"/><path class="cls-2" d="M76.87,38.76,41.71,3.59a2.09,2.09,0,0,0-2.93,0L3.62,38.76a2.07,2.07,0,0,0,0,2.93L38.78,76.85a2.07,2.07,0,0,0,2.93,0L76.87,41.69a2.07,2.07,0,0,0,0-2.93m-2,.79a.93.93,0,0,1,0,1.34l-33.94,34a1,1,0,0,1-1.33,0l-34-33.95a.94.94,0,0,1,0-1.32l34-34a1,1,0,0,1,1.33,0Z"/><path class="cls-2" d="M36.25,32.85v1.71c0,6.35-5.05,11.38-9.51,16.45l4.08,4.07c2.48-2.6,4.72-5.24,5.43-6.19V60.14h7.94V32.88l4.25,1.3a1.68,1.68,0,0,0,2.25-2.24L40.27,16.7,29.75,31.94A1.68,1.68,0,0,0,32,34.18"/><path d="M112.14,60.08,108.55,50h-17L88,60.08H81.34L96.68,17.47h6.75L119,60.08Zm-9-25.63c-1-3-2.74-8-3.22-9.8-.49,1.83-2,6.7-3.11,9.86l-3.41,9.74H106.6Z"/><path d="M144.7,60.08V57c-1.58,2.32-4.74,3.72-8,3.72-7.43,0-11.38-4.87-11.38-14.31V28.12h6.27V46.2c0,6.45,2.43,8.76,6.57,8.76s6.57-3,6.57-8.15V28.12H151v32Z"/><path d="M175.5,59.29a12.74,12.74,0,0,1-6.15,1.46c-4.44,0-7.18-2.74-7.18-8.46V33.84h-4.56V28.12h4.56V19l6.15-3.29V28.12h7.91v5.72h-7.91V51.19c0,3,1,3.83,3.29,3.83a10,10,0,0,0,4.62-1.27Z"/><path d="M196.08,60.75c-8,0-14.06-6.64-14.06-16.62,0-10.47,6.2-16.68,14.24-16.68S210.5,34,210.5,44C210.5,54.54,204.29,60.75,196.08,60.75ZM196,33.42c-4.75,0-7.67,4.2-7.67,10.53,0,7,3.22,10.83,8,10.83s7.85-4.81,7.85-10.65C204.17,37.62,201.07,33.42,196,33.42Z"/><path d="M255.36,60.08V42c0-6.45-2-8.77-6.15-8.77s-6.14,3-6.14,8.16V60.08H236.8V42c0-6.45-2-8.77-6.15-8.77s-6.15,3-6.15,8.16V60.08h-6.27v-32h6.27v3a9,9,0,0,1,7.61-3.71c4.32,0,7.06,1.65,8.76,4.69,2.32-2.86,4.81-4.69,9.8-4.69,7.43,0,11,4.87,11,14.31V60.08Z"/><path d="M296.39,46.32H275.27c.66,6.15,4.13,8.77,8,8.77a11.22,11.22,0,0,0,6.94-2.56l3.71,4a14.9,14.9,0,0,1-11,4.2c-7.48,0-13.81-6-13.81-16.62,0-10.84,5.72-16.68,14-16.68,9.07,0,13.45,7.37,13.45,16C296.57,44.62,296.45,45.65,296.39,46.32Zm-13.7-13.21c-4.2,0-6.76,2.92-7.3,8h14.85C289.93,36.76,287.86,33.11,282.69,33.11Z"/><path d="M321.71,34.76a9.37,9.37,0,0,0-4.81-1.16c-4,0-6.27,2.8-6.27,8.22V60.08h-6.27v-32h6.27v3a8.86,8.86,0,0,1,7.3-3.71,9.22,9.22,0,0,1,5.42,1.34Z"/><path d="M338.45,71.82l-2.14-4.74c9-.43,11-2.86,11-9.5V57c-2.31,2.13-4.93,3.72-8.28,3.72-6.81,0-12.29-5-12.29-17.17,0-10.95,6-16.13,12.6-16.13a11.11,11.11,0,0,1,8,3.65v-3h6.27V57C353.54,66.77,350,71.46,338.45,71.82Zm8.94-34.39c-1.4-1.88-4.32-4.2-7.48-4.2-4.51,0-6.94,3.41-6.94,10.17,0,8,2.55,11.56,7.18,11.56,3,0,5.6-2,7.24-4.07Z"/><path d="M388.54,46.32H367.42c.67,6.15,4.14,8.77,8,8.77a11.22,11.22,0,0,0,6.94-2.56l3.71,4a14.87,14.87,0,0,1-11,4.2c-7.49,0-13.82-6-13.82-16.62,0-10.84,5.72-16.68,14-16.68,9.07,0,13.45,7.37,13.45,16C388.72,44.62,388.6,45.65,388.54,46.32Zm-13.7-13.21c-4.2,0-6.75,2.92-7.3,8h14.85C382.09,36.76,380,33.11,374.84,33.11Z"/></g></g></svg>