<svg xmlns="http://www.w3.org/2000/svg" viewBox="0 0 491 112"><defs><style>.cls-1{fill:#fff;}.cls-2{fill:#fc3;}.cls-3{fill:#2a1e20;fill-rule:evenodd;}.cls-4{fill:none;}</style></defs><g id="Layer_2" data-name="Layer 2"><g id="Layer_1-2" data-name="Layer 1"><path class="cls-1" d="M468,7a15,15,0,0,1,15,15V90a15,15,0,0,1-15,15H23A15,15,0,0,1,8,90V22A15,15,0,0,1,23,7H468m0-5H23A20,20,0,0,0,3,22V90a20,20,0,0,0,20,20H468a20,20,0,0,0,20-20V22A20,20,0,0,0,468,2Z"/><rect class="cls-2" x="6.7" y="5.7" width="477.6" height="100.6" rx="16.3"/><path class="cls-2" d="M468,7a15,15,0,0,1,15,15V90a15,15,0,0,1-15,15H23A15,15,0,0,1,8,90V22A15,15,0,0,1,23,7H468m0-2.6H23A17.63,17.63,0,0,0,5.4,22V90A17.63,17.63,0,0,0,23,107.6H468A17.63,17.63,0,0,0,485.6,90V22A17.63,17.63,0,0,0,468,4.4Z"/><path d="M468,9.6A12.41,12.41,0,0,1,480.4,22V90A12.41,12.41,0,0,1,468,102.4H23A12.41,12.41,0,0,1,10.6,90V22A12.41,12.41,0,0,1,23,9.6H468M468,7H23A15,15,0,0,0,8,22V90a15,15,0,0,0,15,15H468a15,15,0,0,0,15-15V22A15,15,0,0,0,468,7Z"/><path class="cls-3" d="M123.1,53.48l-34-34a2,2,0,0,0-2.83,0l-34,34a2,2,0,0,0,0,2.82l34,34a2,2,0,0,0,2.83,0l34-34a2,2,0,0,0,0-2.82m-.76.74a.93.93,0,0,1,0,1.34L88.4,89.5a1,1,0,0,1-1.33,0l-34-33.94a.94.94,0,0,1,0-1.32l34-34a1,1,0,0,1,1.33,0Z"/><path class="cls-3" d="M84,47.62V49c0,6.2-5.1,11.11-9.59,16.06l4.11,4C81,66.52,83.28,63.94,84,63V74h8V47.37l4.29,1.27a1.67,1.67,0,0,0,2.27-2.19L88,31.56,77.45,46.45a1.67,1.67,0,0,0,2.27,2.19"/><path d="M159.62,74.74,156,64.64H139l-3.53,10.1h-6.63l15.34-42.61h6.75l15.53,42.61Zm-9-25.62c-1-3-2.74-8-3.22-9.8-.49,1.82-2,6.69-3.11,9.86l-3.41,9.73h13.15Z"/><path d="M192.18,74.74v-3c-1.58,2.31-4.74,3.71-8,3.71-7.43,0-11.38-4.87-11.38-14.3V42.78H179V60.86c0,6.45,2.43,8.77,6.57,8.77s6.57-3,6.57-8.16V42.78h6.27v32Z"/><path d="M223,74a12.74,12.74,0,0,1-6.15,1.46c-4.44,0-7.18-2.74-7.18-8.46V48.51h-4.56V42.78h4.56V33.65l6.15-3.28V42.78h7.91v5.73H215.8V65.85c0,3,1,3.84,3.29,3.84a10,10,0,0,0,4.62-1.28Z"/><path d="M243.56,75.41c-8,0-14.06-6.63-14.06-16.62,0-10.47,6.2-16.67,14.24-16.67S258,48.63,258,58.61C258,69.2,251.77,75.41,243.56,75.41Zm-.07-27.33c-4.74,0-7.66,4.2-7.66,10.53,0,7,3.22,10.83,8,10.83s7.85-4.8,7.85-10.65C251.65,52.28,248.55,48.08,243.49,48.08Z"/><path d="M302.84,74.74V56.66c0-6.45-2-8.76-6.15-8.76s-6.14,3-6.14,8.15V74.74h-6.27V56.66c0-6.45-2-8.76-6.15-8.76s-6.15,3-6.15,8.15V74.74h-6.27v-32H272v3a9,9,0,0,1,7.61-3.71c4.32,0,7.06,1.64,8.76,4.68,2.32-2.86,4.81-4.68,9.8-4.68,7.43,0,11,4.86,11,14.3V74.74Z"/><path d="M343.87,61H322.74c.67,6.15,4.14,8.77,8,8.77a11.16,11.16,0,0,0,6.94-2.56l3.71,4a14.86,14.86,0,0,1-11,4.2c-7.48,0-13.81-6-13.81-16.62,0-10.83,5.72-16.67,14-16.67,9.07,0,13.45,7.36,13.45,16C344.05,59.28,343.93,60.31,343.87,61Zm-13.7-13.2c-4.2,0-6.76,2.92-7.3,8h14.85C337.41,51.43,335.34,47.78,330.17,47.78Z"/><path d="M369.19,49.42a9.37,9.37,0,0,0-4.81-1.16c-4,0-6.27,2.8-6.27,8.22V74.74h-6.27v-32h6.27v3a8.86,8.86,0,0,1,7.3-3.71,9.22,9.22,0,0,1,5.42,1.33Z"/><path d="M385.92,86.49l-2.13-4.75c9-.43,11-2.86,11-9.5V71.7c-2.31,2.13-4.93,3.71-8.28,3.71-6.81,0-12.29-5-12.29-17.16,0-11,6-16.13,12.6-16.13a11.07,11.07,0,0,1,8,3.65v-3H401V71.7C401,81.44,397.49,86.12,385.92,86.49Zm8.95-34.39c-1.4-1.89-4.32-4.2-7.48-4.2-4.51,0-6.94,3.41-6.94,10.16,0,8,2.55,11.57,7.18,11.57,3,0,5.6-2,7.24-4.08Z"/><path d="M436,61H414.9c.67,6.15,4.14,8.77,8,8.77a11.16,11.16,0,0,0,6.94-2.56l3.71,4a14.84,14.84,0,0,1-11,4.2c-7.49,0-13.82-6-13.82-16.62,0-10.83,5.72-16.67,14-16.67,9.07,0,13.45,7.36,13.45,16C436.2,59.28,436.08,60.31,436,61Zm-13.7-13.2c-4.2,0-6.75,2.92-7.3,8h14.85C429.57,51.43,427.5,47.78,422.32,47.78Z"/><rect id="_Slice_" data-name="&lt;Slice&gt;" class="cls-4" width="491" height="112"/></g></g></svg>