<svg xmlns="http://www.w3.org/2000/svg" viewBox="0 0 485 108"><defs><style>.cls-1{fill:#fff;}.cls-2{fill:#fc3;}.cls-3{fill:#2a1e20;fill-rule:evenodd;}</style></defs><g id="Layer_2" data-name="Layer 2"><g id="Layer_1-2" data-name="Layer 1"><path class="cls-1" d="M465,5a15,15,0,0,1,15,15V88a15,15,0,0,1-15,15H20A15,15,0,0,1,5,88V20A15,15,0,0,1,20,5H465m0-5H20A20,20,0,0,0,0,20V88a20,20,0,0,0,20,20H465a20,20,0,0,0,20-20V20A20,20,0,0,0,465,0Z"/><rect class="cls-2" x="3.7" y="3.7" width="477.6" height="100.6" rx="16.3"/><path class="cls-2" d="M465,5a15,15,0,0,1,15,15V88a15,15,0,0,1-15,15H20A15,15,0,0,1,5,88V20A15,15,0,0,1,20,5H465m0-2.6H20A17.63,17.63,0,0,0,2.4,20V88A17.63,17.63,0,0,0,20,105.6H465A17.63,17.63,0,0,0,482.6,88V20A17.63,17.63,0,0,0,465,2.4Z"/><path d="M465,7.6A12.41,12.41,0,0,1,477.4,20V88A12.41,12.41,0,0,1,465,100.4H20A12.41,12.41,0,0,1,7.6,88V20A12.41,12.41,0,0,1,20,7.6H465M465,5H20A15,15,0,0,0,5,20V88a15,15,0,0,0,15,15H465a15,15,0,0,0,15-15V20A15,15,0,0,0,465,5Z"/><path class="cls-3" d="M106.1,51.48l-34-34a2,2,0,0,0-2.83,0l-34,34a2,2,0,0,0,0,2.82l34,34a2,2,0,0,0,2.83,0l34-34a2,2,0,0,0,0-2.82m-.76.74a.93.93,0,0,1,0,1.34L71.4,87.5a1,1,0,0,1-1.33,0l-34-33.94a.94.94,0,0,1,0-1.32l34-34a1,1,0,0,1,1.33,0Z"/><path class="cls-3" d="M67,45.62V47c0,6.2-5.1,11.11-9.59,16.06l4.11,4C64,64.52,66.28,61.94,67,61V72h8V45.37l4.29,1.27a1.67,1.67,0,0,0,2.27-2.19L71,29.56,60.45,44.45a1.67,1.67,0,0,0,2.27,2.19"/><path d="M162.62,72.74,159,62.64H142l-3.53,10.1h-6.63l15.34-42.61h6.75l15.53,42.61Zm-9-25.62c-1-3-2.74-8-3.22-9.8-.49,1.82-2,6.69-3.11,9.86l-3.41,9.73h13.15Z"/><path d="M195.18,72.74v-3c-1.58,2.31-4.74,3.71-8,3.71-7.43,0-11.38-4.87-11.38-14.3V40.78H182V58.86c0,6.45,2.43,8.77,6.57,8.77s6.57-3,6.57-8.16V40.78h6.27v32Z"/><path d="M226,72a12.74,12.74,0,0,1-6.15,1.46c-4.44,0-7.18-2.74-7.18-8.46V46.51h-4.56V40.78h4.56V31.65l6.15-3.28V40.78h7.91v5.73H218.8V63.85c0,3,1,3.84,3.29,3.84a10,10,0,0,0,4.62-1.28Z"/><path d="M246.56,73.41c-8,0-14.06-6.63-14.06-16.62,0-10.47,6.2-16.67,14.24-16.67S261,46.63,261,56.61C261,67.2,254.77,73.41,246.56,73.41Zm-.07-27.33c-4.74,0-7.66,4.2-7.66,10.53,0,7,3.22,10.83,8,10.83s7.85-4.8,7.85-10.65C254.65,50.28,251.55,46.08,246.49,46.08Z"/><path d="M305.84,72.74V54.66c0-6.45-2-8.76-6.15-8.76s-6.14,3-6.14,8.15V72.74h-6.27V54.66c0-6.45-2-8.76-6.15-8.76s-6.15,3-6.15,8.15V72.74h-6.27v-32H275v3a9,9,0,0,1,7.61-3.71c4.32,0,7.06,1.64,8.76,4.68,2.32-2.86,4.81-4.68,9.8-4.68,7.43,0,11,4.86,11,14.3V72.74Z"/><path d="M346.87,59H325.74c.67,6.15,4.14,8.77,8,8.77a11.16,11.16,0,0,0,6.94-2.56l3.71,4a14.86,14.86,0,0,1-11,4.2c-7.48,0-13.81-6-13.81-16.62,0-10.83,5.72-16.67,14-16.67,9.07,0,13.45,7.36,13.45,16C347.05,57.28,346.93,58.31,346.87,59Zm-13.7-13.2c-4.2,0-6.76,2.92-7.3,8h14.85C340.41,49.43,338.34,45.78,333.17,45.78Z"/><path d="M372.19,47.42a9.37,9.37,0,0,0-4.81-1.16c-4,0-6.27,2.8-6.27,8.22V72.74h-6.27v-32h6.27v3a8.86,8.86,0,0,1,7.3-3.71,9.22,9.22,0,0,1,5.42,1.33Z"/><path d="M388.92,84.49l-2.13-4.75c9-.43,11-2.86,11-9.5V69.7c-2.31,2.13-4.93,3.71-8.28,3.71-6.81,0-12.29-5-12.29-17.16,0-11,6-16.13,12.6-16.13a11.07,11.07,0,0,1,8,3.65v-3H404V69.7C404,79.44,400.49,84.12,388.92,84.49Zm8.95-34.39c-1.4-1.89-4.32-4.2-7.48-4.2-4.51,0-6.94,3.41-6.94,10.16,0,8,2.55,11.57,7.18,11.57,3,0,5.6-2,7.24-4.08Z"/><path d="M439,59H417.9c.67,6.15,4.14,8.77,8,8.77a11.16,11.16,0,0,0,6.94-2.56l3.71,4a14.84,14.84,0,0,1-11,4.2c-7.49,0-13.82-6-13.82-16.62,0-10.83,5.72-16.67,14-16.67,9.07,0,13.45,7.36,13.45,16C439.2,57.28,439.08,58.31,439,59Zm-13.7-13.2c-4.2,0-6.75,2.92-7.3,8h14.85C432.57,49.43,430.5,45.78,425.32,45.78Z"/></g></g></svg>